<svg width="36" height="36" viewBox="0 0 36 36" fill="none" xmlns="http://www.w3.org/2000/svg">
<rect width="36" height="36" rx="4" fill="#F1F7FD"/>
<path fill-rule="evenodd" clip-rule="evenodd" d="M18 15.4153C17.4777 15.4153 16.9768 15.6228 16.6075 15.9921C16.2381 16.3614 16.0307 16.8623 16.0307 17.3846C16.0307 17.9069 16.2381 18.4078 16.6075 18.7772C16.9768 19.1465 17.4777 19.354 18 19.354C18.5223 19.354 19.0232 19.1465 19.3925 18.7772C19.7619 18.4078 19.9693 17.9069 19.9693 17.3846C19.9693 16.8623 19.7619 16.3614 19.3925 15.9921C19.0232 15.6228 18.5223 15.4153 18 15.4153ZM14.7998 17.3846C14.7998 16.5359 15.137 15.7219 15.7371 15.1218C16.3373 14.5216 17.1513 14.1844 18 14.1844C18.8487 14.1844 19.6627 14.5216 20.2629 15.1218C20.863 15.7219 21.2002 16.5359 21.2002 17.3846C21.2002 18.2334 20.863 19.0473 20.2629 19.6475C19.6627 20.2476 18.8487 20.5848 18 20.5848C17.1513 20.5848 16.3373 20.2476 15.7371 19.6475C15.137 19.0473 14.7998 18.2334 14.7998 17.3846ZM16.9538 13.0767C16.9538 12.9135 17.0186 12.7569 17.134 12.6415C17.2495 12.5261 17.406 12.4613 17.5692 12.4613H18.4308C18.594 12.4613 18.7505 12.5261 18.866 12.6415C18.9814 12.7569 19.0462 12.9135 19.0462 13.0767C19.0462 13.2399 18.9814 13.3964 18.866 13.5119C18.7505 13.6273 18.594 13.6921 18.4308 13.6921H17.5692C17.406 13.6921 17.2495 13.6273 17.134 13.5119C17.0186 13.3964 16.9538 13.2399 16.9538 13.0767Z" fill="#1262AE"/>
<path fill-rule="evenodd" clip-rule="evenodd" d="M17.3846 15.2307V13.5075H18.6154V15.2307H17.3846ZM20.1496 13.5032C20.265 13.3878 20.4215 13.323 20.5847 13.323C20.7479 13.323 20.9044 13.3878 21.0198 13.5032L21.8814 14.3648C21.9935 14.4808 22.0556 14.6363 22.0542 14.7977C22.0527 14.959 21.988 15.1134 21.8739 15.2275C21.7598 15.3416 21.6055 15.4063 21.4441 15.4077C21.2827 15.4091 21.1273 15.3471 21.0112 15.235L20.1496 14.3734C20.0343 14.258 19.9694 14.1015 19.9694 13.9383C19.9694 13.7751 20.0343 13.6186 20.1496 13.5032Z" fill="#1262AE"/>
<path fill-rule="evenodd" clip-rule="evenodd" d="M19.288 15.2264L20.5804 13.934L21.4506 14.8042L20.1582 16.0966L19.288 15.2264ZM22.3079 16.3384C22.4711 16.3384 22.6277 16.4033 22.7431 16.5187C22.8585 16.6341 22.9233 16.7906 22.9233 16.9538V17.8154C22.9233 17.9786 22.8585 18.1352 22.7431 18.2506C22.6277 18.366 22.4711 18.4308 22.3079 18.4308C22.1447 18.4308 21.9881 18.366 21.8727 18.2506C21.7573 18.1352 21.6925 17.9786 21.6925 17.8154V16.9538C21.6925 16.7906 21.7573 16.6341 21.8727 16.5187C21.9881 16.4033 22.1447 16.3384 22.3079 16.3384Z" fill="#1262AE"/>
<path fill-rule="evenodd" clip-rule="evenodd" d="M19.9693 17.3846C19.9693 17.2214 20.0341 17.0649 20.1495 16.9495C20.2649 16.834 20.4215 16.7692 20.5847 16.7692H22.3079C22.4711 16.7692 22.6276 16.834 22.743 16.9495C22.8584 17.0649 22.9233 17.2214 22.9233 17.3846C22.9233 17.5478 22.8584 17.7044 22.743 17.8198C22.6276 17.9352 22.4711 18 22.3079 18H20.5847C20.4215 18 20.2649 17.9352 20.1495 17.8198C20.0341 17.7044 19.9693 17.5478 19.9693 17.3846ZM22.3122 19.5343C22.4275 19.6497 22.4924 19.8062 22.4924 19.9694C22.4924 20.1326 22.4275 20.2891 22.3122 20.4045L21.4506 21.2661C21.3938 21.3249 21.3259 21.3717 21.2508 21.404C21.1757 21.4362 21.095 21.4532 21.0133 21.4539C20.9316 21.4546 20.8505 21.4391 20.7749 21.4081C20.6992 21.3772 20.6305 21.3315 20.5728 21.2737C20.515 21.2159 20.4693 21.1472 20.4383 21.0716C20.4074 20.9959 20.3918 20.9149 20.3925 20.8332C20.3932 20.7515 20.4102 20.6707 20.4425 20.5956C20.4747 20.5206 20.5216 20.4526 20.5804 20.3959L21.442 19.5343C21.5574 19.4189 21.7139 19.3541 21.8771 19.3541C22.0403 19.3541 22.1968 19.4189 22.3122 19.5343Z" fill="#1262AE"/>
<path fill-rule="evenodd" clip-rule="evenodd" d="M20.5891 18.6727L21.8814 19.9651L21.0112 20.8353L19.7189 19.5429L20.5891 18.6727ZM16.9538 21.6926C16.9538 21.5293 17.0186 21.3728 17.134 21.2574C17.2494 21.142 17.406 21.0771 17.5692 21.0771H18.4308C18.594 21.0771 18.7505 21.142 18.866 21.2574C18.9814 21.3728 19.0462 21.5293 19.0462 21.6926C19.0462 21.8558 18.9814 22.0123 18.866 22.1277C18.7505 22.2431 18.594 22.308 18.4308 22.308H17.5692C17.406 22.308 17.2494 22.2431 17.134 22.1277C17.0186 22.0123 16.9538 21.8558 16.9538 21.6926Z" fill="#1262AE"/>
<path fill-rule="evenodd" clip-rule="evenodd" d="M17.9999 19.354C18.1631 19.354 18.3197 19.4188 18.4351 19.5342C18.5505 19.6496 18.6153 19.8062 18.6153 19.9694V21.6926C18.6153 21.8558 18.5505 22.0123 18.4351 22.1277C18.3197 22.2431 18.1631 22.308 17.9999 22.308C17.8367 22.308 17.6802 22.2431 17.5648 22.1277C17.4493 22.0123 17.3845 21.8558 17.3845 21.6926V19.9694C17.3845 19.8062 17.4493 19.6496 17.5648 19.5342C17.6802 19.4188 17.8367 19.354 17.9999 19.354ZM14.1185 19.5343C14.2339 19.4189 14.3904 19.3541 14.5536 19.3541C14.7168 19.3541 14.8733 19.4189 14.9887 19.5343L15.8503 20.3959C15.9624 20.5119 16.0244 20.6674 16.023 20.8288C16.0216 20.9901 15.9569 21.1445 15.8428 21.2586C15.7287 21.3727 15.5743 21.4374 15.413 21.4388C15.2516 21.4402 15.0961 21.3782 14.9801 21.2661L14.1185 20.4045C14.0031 20.2891 13.9383 20.1326 13.9383 19.9694C13.9383 19.8062 14.0031 19.6497 14.1185 19.5343Z" fill="#1262AE"/>
<path fill-rule="evenodd" clip-rule="evenodd" d="M16.7119 19.5429L15.4195 20.8353L14.5493 19.9651L15.8417 18.6727L16.7119 19.5429ZM13.692 16.3384C13.8553 16.3384 14.0118 16.4033 14.1272 16.5187C14.2426 16.6341 14.3075 16.7906 14.3075 16.9538V17.8154C14.3075 17.9787 14.2426 18.1352 14.1272 18.2506C14.0118 18.366 13.8553 18.4309 13.692 18.4309C13.5288 18.4309 13.3723 18.366 13.2569 18.2506C13.1415 18.1352 13.0766 17.9787 13.0766 17.8154V16.9538C13.0766 16.7906 13.1415 16.6341 13.2569 16.5187C13.3723 16.4033 13.5288 16.3384 13.692 16.3384Z" fill="#1262AE"/>
<path fill-rule="evenodd" clip-rule="evenodd" d="M13.0766 17.3846C13.0766 17.2214 13.1415 17.0649 13.2569 16.9495C13.3723 16.8341 13.5288 16.7692 13.692 16.7692H15.4152C15.5784 16.7692 15.735 16.8341 15.8504 16.9495C15.9658 17.0649 16.0306 17.2214 16.0306 17.3846C16.0306 17.5479 15.9658 17.7044 15.8504 17.8198C15.735 17.9352 15.5784 18.0001 15.4152 18.0001H13.692C13.5288 18.0001 13.3723 17.9352 13.2569 17.8198C13.1415 17.7044 13.0766 17.5479 13.0766 17.3846ZM15.8503 13.5032C15.9657 13.6186 16.0305 13.7751 16.0305 13.9383C16.0305 14.1015 15.9657 14.258 15.8503 14.3734L14.9887 15.235C14.8727 15.3471 14.7172 15.4091 14.5558 15.4077C14.3945 15.4063 14.2401 15.3416 14.126 15.2275C14.0119 15.1134 13.9472 14.959 13.9458 14.7977C13.9444 14.6363 14.0064 14.4808 14.1185 14.3648L14.9801 13.5032C15.0955 13.3878 15.252 13.323 15.4152 13.323C15.5784 13.323 15.7349 13.3878 15.8503 13.5032Z" fill="#1262AE"/>
<path fill-rule="evenodd" clip-rule="evenodd" d="M15.8417 16.0966L14.5493 14.8042L15.4195 13.934L16.7119 15.2264L15.8417 16.0966Z" fill="#1262AE"/>
<path fill-rule="evenodd" clip-rule="evenodd" d="M18 6.92313C20.9731 6.89644 23.9193 7.48719 26.6522 8.658L26.6614 8.6623C27.0153 8.82065 27.3159 9.07771 27.5273 9.40265C27.7378 9.72698 27.8492 10.1055 27.8467 10.4919V17.5705C27.8467 19.3761 27.4405 21.5436 26.1457 23.5954C24.8472 25.6528 22.6815 27.5514 19.237 28.8524C18.4398 29.1531 17.5603 29.1531 16.763 28.8524C13.3179 27.5495 11.1523 25.6583 9.85372 23.6047C8.55888 21.5572 8.15332 19.3897 8.15332 17.5699V10.4919C8.15132 10.1054 8.26257 9.72671 8.47333 9.40265C8.68457 9.0778 8.985 8.82075 9.33861 8.6623L9.34784 8.658C12.0807 7.48698 15.0269 6.89602 18 6.92251V6.92313ZM8.76874 10.4895H9.38415V17.5699C9.38415 19.2118 9.74971 21.1375 10.8938 22.9462C12.0335 24.7494 13.9733 26.4811 17.1981 27.7009C17.7151 27.8959 18.2855 27.8959 18.8025 27.7009C22.0242 26.4836 23.964 24.745 25.1044 22.9376C26.2497 21.1233 26.6159 19.1964 26.6159 17.5693V10.4858C26.6168 10.3392 26.5747 10.1956 26.4946 10.0728C26.4146 9.94976 26.2996 9.84945 26.1617 9.78667C23.5852 8.68415 20.8079 8.1284 18.0056 8.15458H17.9945C15.1921 8.1284 12.4148 8.68415 9.83833 9.78667C9.70269 9.84837 9.58742 9.94742 9.50601 10.0722C9.42573 10.1952 9.38336 10.339 9.38415 10.4858L8.76874 10.4901V10.4895Z" fill="#1262AE"/>
</svg>
