<svg width="25" height="25" viewBox="0 0 25 25" fill="none" xmlns="http://www.w3.org/2000/svg">
<g opacity="0.8">
<mask id="mask0_9_978" style="mask-type:alpha" maskUnits="userSpaceOnUse" x="0" y="1" width="25" height="23">
<path d="M21.6526 5.78664H4.00381C2.25279 5.78664 0.828217 7.24252 0.828217 9.0321V20.3053C0.828217 22.0949 2.25279 23.5508 4.00381 23.5508H21.6526C23.4036 23.5508 24.8282 22.0949 24.8282 20.3053V9.0321C24.8282 7.24256 23.4037 5.78664 21.6526 5.78664ZM22.8893 20.3053C22.8893 21.0021 22.3345 21.5691 21.6527 21.5691H4.00381C3.32192 21.5691 2.7672 21.0021 2.7672 20.3053V9.0321C2.7672 8.33521 3.32197 7.76829 4.00381 7.76829H21.6526C22.3345 7.76829 22.8893 8.33526 22.8893 9.0321V20.3053ZM15.0343 1.27737H10.6221C8.87112 1.27737 7.44654 2.73329 7.44654 4.52283V22.5599C7.44654 23.1071 7.88061 23.5507 8.41601 23.5507C8.95142 23.5507 9.38548 23.1071 9.38548 22.5599V4.52283C9.38548 3.82594 9.94025 3.25902 10.6221 3.25902H15.0343C15.7162 3.25902 16.2709 3.82599 16.2709 4.52283V22.5599C16.2709 23.1071 16.7049 23.5507 17.2404 23.5507C17.7758 23.5507 18.2098 23.1071 18.2098 22.5599V4.52283C18.2098 2.73329 16.7854 1.27737 15.0343 1.27737Z" fill="white"/>
</mask>
<g mask="url(#mask0_9_978)">
<mask id="mask1_9_978" style="mask-type:alpha" maskUnits="userSpaceOnUse" x="0" y="0" width="25" height="25">
<path d="M24.8282 0.264954H0.828217V24.5632H24.8282V0.264954Z" fill="white"/>
</mask>
<g mask="url(#mask1_9_978)">
<path d="M24.8282 0.264954H0.828217V24.5632H24.8282V0.264954Z" fill="#1A6EB4"/>
</g>
</g>
</g>
</svg>
