<svg width="36" height="36" viewBox="0 0 36 36" fill="none" xmlns="http://www.w3.org/2000/svg">
<rect width="36" height="36" rx="4" fill="#F1F7FD"/>
<path d="M25 18L21 14M25 18L21 22M25 18H15M20 27C18.8181 27 17.6478 26.7672 16.5558 26.3149C15.4639 25.8626 14.4718 25.1997 13.636 24.364C12.8003 23.5282 12.1374 22.5361 11.6851 21.4442C11.2328 20.3522 11 19.1819 11 18C11 16.8181 11.2328 15.6478 11.6851 14.5558C12.1374 13.4639 12.8003 12.4718 13.636 11.636C14.4718 10.8003 15.4639 10.1374 16.5558 9.68508C17.6478 9.23279 18.8181 9 20 9" stroke="#1262AE" stroke-width="1.5" stroke-linecap="round" stroke-linejoin="round"/>
</svg>
