<svg width="153" height="28" viewBox="0 0 153 28" fill="none" xmlns="http://www.w3.org/2000/svg">
<path d="M4.81939 22.3032V13.8797H13.6382V10.3904H4.81939V5.7697H14.8922V2.23947H0.648529V22.3032H4.81939ZM20.5826 5.67429V2.08953H16.6434V5.67429H20.5826ZM20.5826 22.3032V7.44623H16.6434V22.3032H20.5826ZM29.667 22.8212C32.0568 22.8212 33.8605 21.9715 35.0782 20.2723C35.8415 19.2182 36.2686 18.1005 36.3594 16.9193H32.393C32.3112 17.7007 32.0795 18.3368 31.6979 18.8275C31.3162 19.3182 30.6711 19.5635 29.7624 19.5635C28.4811 19.5635 27.6088 18.9456 27.1454 17.7098C26.8909 17.0465 26.7637 16.1696 26.7637 15.0792C26.7637 13.9342 26.8909 13.0165 27.1454 12.3259C27.627 11.0264 28.522 10.3767 29.8305 10.3767C30.7483 10.3767 31.4253 10.6766 31.8614 11.2763C32.1613 11.7216 32.3476 12.2214 32.4203 12.7757H36.4003C36.1822 10.6584 35.4803 9.18181 34.2944 8.34582C33.1086 7.50983 31.5843 7.09184 29.7215 7.09184C27.5316 7.09184 25.8141 7.80061 24.5692 9.21816C23.3243 10.6357 22.7019 12.6212 22.7019 15.1746C22.7019 17.4372 23.2653 19.2773 24.3921 20.6948C25.5188 22.1124 27.2771 22.8212 29.667 22.8212ZM42.0499 22.3032V17.628L43.6582 15.9515L47.2157 22.3032H51.9045L46.507 13.1982L51.7001 7.51438H46.8886L42.0499 13.1028V2.28036H38.2334V22.3032H42.0499ZM56.968 22.3032V2.21221H53.0834V22.3032H56.968ZM65.9569 22.7939C68.2468 22.7939 70.0279 22.0715 71.3 20.6267C72.1178 19.718 72.5767 18.823 72.6767 17.9415H68.7103C68.5013 18.3777 68.2605 18.7185 67.9879 18.9638C67.4881 19.4181 66.8384 19.6453 66.0387 19.6453C65.2845 19.6453 64.6394 19.459 64.1032 19.0865C63.2218 18.4867 62.7538 17.4418 62.6993 15.9515H72.8675C72.8857 14.6703 72.8448 13.6889 72.7448 13.0074C72.5722 11.8443 72.1951 10.822 71.6135 9.94056C70.9683 8.94101 70.1505 8.20952 69.1601 7.74609C68.1696 7.28266 67.0565 7.05095 65.8206 7.05095C63.7398 7.05095 62.0473 7.73701 60.7434 9.10912C59.4394 10.4812 58.7874 12.4531 58.7874 15.0247C58.7874 17.7689 59.5098 19.7498 60.9546 20.9674C62.3995 22.1851 64.0669 22.7939 65.9569 22.7939ZM68.8329 13.389H62.7947C62.9219 12.4258 63.2332 11.6625 63.7284 11.0991C64.2236 10.5358 64.9211 10.2541 65.8206 10.2541C66.6476 10.2541 67.3404 10.5199 67.8993 11.0514C68.4581 11.583 68.7693 12.3622 68.8329 13.389ZM114.061 6.60542C115.252 6.60542 116.333 6.75687 117.304 7.05975C118.275 7.36264 119.095 7.7543 119.763 8.23473C120.181 8.52717 120.51 8.85095 120.75 9.20605C120.991 9.56116 121.111 10.0207 121.111 10.5847V21.5512L121.105 21.8788C121.067 22.8479 120.86 23.6944 120.484 24.4182C120.066 25.2224 119.497 25.8908 118.776 26.4235C118.056 26.9561 117.21 27.3478 116.239 27.5985C115.267 27.8491 114.228 27.9745 113.121 27.9745C111.22 27.9745 109.726 27.7186 108.64 27.2068C107.554 26.695 107.011 25.8647 107.011 24.7158C107.011 24.2354 107.11 23.8124 107.309 23.4469C107.507 23.0813 107.732 22.8045 107.982 22.6165C108.588 22.9508 109.272 23.2328 110.035 23.4625C110.797 23.6923 111.586 23.8072 112.4 23.8072C113.528 23.8072 114.426 23.6192 115.095 23.2432C115.763 22.8672 116.098 22.2614 116.098 21.4259V20.9246L115.835 21.0317C115.03 21.3363 114.073 21.4886 112.964 21.4886C112.024 21.4886 111.131 21.3476 110.285 21.0656C109.439 20.7836 108.698 20.3449 108.061 19.7496C107.424 19.1543 106.912 18.3866 106.525 17.4466C106.139 16.5066 105.946 15.3891 105.946 14.094C105.946 12.8198 106.149 11.7127 106.557 10.7727C106.964 9.83271 107.528 9.05461 108.249 8.4384C108.969 7.82218 109.826 7.36264 110.818 7.05975C111.81 6.75687 112.891 6.60542 114.061 6.60542ZM93.0963 1.59216C93.5559 1.59216 93.9684 1.62349 94.334 1.68616C94.6995 1.74882 95.0076 1.87415 95.2583 2.06215C95.509 2.25015 95.7022 2.50603 95.838 2.82981C95.9737 3.15358 96.0416 3.57658 96.0416 4.09879V22.2719L95.9176 22.2941C95.6956 22.3332 95.3975 22.3833 95.0233 22.4442C94.5742 22.5173 94.1199 22.5539 93.6603 22.5539C93.2008 22.5539 92.7882 22.5225 92.4227 22.4599C92.0571 22.3972 91.749 22.2719 91.4983 22.0839C91.2477 21.8959 91.0545 21.64 90.9187 21.3162C90.7829 20.9924 90.715 20.5695 90.715 20.0472V1.87415L90.839 1.85196C91.061 1.81279 91.3591 1.76275 91.7333 1.70182C92.1824 1.62871 92.6368 1.59216 93.0963 1.59216ZM101.103 7.01275C101.563 7.01275 101.975 7.04408 102.341 7.10675C102.706 7.16942 103.015 7.29475 103.265 7.48274C103.516 7.67074 103.709 7.92663 103.845 8.2504C103.981 8.57417 104.049 8.99717 104.049 9.51938V22.2719L103.925 22.2941C103.703 22.3332 103.405 22.3833 103.03 22.4442C102.581 22.5173 102.127 22.5539 101.667 22.5539C101.208 22.5539 100.795 22.5225 100.43 22.4599C100.064 22.3972 99.756 22.2719 99.5053 22.0839C99.2547 21.8959 99.0614 21.64 98.9257 21.3162C98.7899 20.9924 98.722 20.5695 98.722 20.0472V7.29475L98.846 7.27255C99.068 7.23339 99.3661 7.18334 99.7403 7.12242C100.189 7.04931 100.644 7.01275 101.103 7.01275ZM126.047 1.59216C126.507 1.59216 126.919 1.62349 127.285 1.68616C127.65 1.74882 127.958 1.87415 128.209 2.06215C128.46 2.25015 128.653 2.50603 128.789 2.82981C128.925 3.15358 128.992 3.57658 128.992 4.09879V7.16942L129.117 7.1237C129.385 7.03034 129.756 6.92547 130.23 6.80909C130.784 6.67331 131.395 6.60542 132.063 6.60542C134.131 6.60542 135.745 7.12242 136.904 8.1564C138.063 9.19039 138.643 10.7309 138.643 12.778V22.2719L138.546 22.2987C138.338 22.3524 138.041 22.4062 137.656 22.4599C137.207 22.5225 136.742 22.5539 136.262 22.5539C135.802 22.5539 135.39 22.5225 135.024 22.4599C134.658 22.3972 134.35 22.2719 134.1 22.0839C133.849 21.8959 133.656 21.64 133.52 21.3162C133.384 20.9924 133.316 20.5695 133.316 20.0472V13.0913L133.312 12.8826C133.279 12.1366 133.067 11.6056 132.674 11.2897C132.246 10.945 131.718 10.7727 131.092 10.7727C130.674 10.7727 130.277 10.8249 129.901 10.9294C129.525 11.0338 129.222 11.1591 128.992 11.3054V22.2719L128.896 22.2987C128.687 22.3524 128.39 22.4062 128.005 22.4599C127.556 22.5225 127.092 22.5539 126.611 22.5539C126.152 22.5539 125.739 22.5225 125.373 22.4599C125.008 22.3972 124.7 22.2719 124.449 22.0839C124.199 21.8959 124.005 21.64 123.87 21.3162C123.734 20.9924 123.666 20.5695 123.666 20.0472V1.87415L123.79 1.85196C124.012 1.81279 124.31 1.76275 124.684 1.70182C125.133 1.62871 125.588 1.59216 126.047 1.59216ZM88.536 3.31547L88.6218 3.46273C88.7338 3.67162 88.8357 3.93064 88.9276 4.23979C89.0425 4.62623 89.1 5.02833 89.1 5.44611C89.1 6.26076 88.9276 6.84042 88.583 7.18508C88.2383 7.52974 87.7735 7.70208 87.1886 7.70208H80.6087V11.2427H87.4706L87.5678 11.3893C87.6931 11.5965 87.8017 11.8506 87.8936 12.1513C88.0085 12.5273 88.066 12.9242 88.066 13.342C88.066 14.1358 87.8936 14.705 87.549 15.0496C87.2043 15.3943 86.7395 15.5666 86.1547 15.5666H80.6714V22.1779L80.5649 22.2047C80.336 22.2584 80.0112 22.3122 79.5904 22.3659C79.0995 22.4285 78.6139 22.4599 78.1334 22.4599C77.653 22.4599 77.23 22.4233 76.8644 22.3502C76.4989 22.2771 76.1908 22.1465 75.9401 21.9585C75.6895 21.7705 75.5015 21.5094 75.3761 21.1752C75.2508 20.841 75.1881 20.4023 75.1881 19.8592V6.22943L75.1946 5.98912C75.2378 5.20364 75.4967 4.57353 75.9715 4.09879C76.4937 3.57658 77.2039 3.31547 78.1021 3.31547H88.536ZM138.933 3.18661C139.584 2.9908 140.696 2.94725 141.996 3.52257C143.31 4.10337 144.129 5.09957 144.454 6.51117L151.504 7.11035C151.591 7.11541 151.678 7.1331 151.764 7.16341C151.894 7.20887 151.963 7.27284 152.022 7.32291C152.165 7.44569 152.211 7.54036 152.28 7.70987C152.401 8.01131 152.364 8.36609 152.206 8.60935C151.951 9.00155 151.553 9.25531 151.01 9.37064L145.319 10.5804L146.323 15.3069C146.439 15.8495 146.693 16.1989 147.086 16.3553C147.479 16.5116 147.989 16.5233 148.615 16.3902C148.928 16.3237 149.246 16.2288 149.568 16.1057C149.891 15.9826 150.169 15.8526 150.402 15.7159C150.638 15.9056 150.854 16.1268 151.05 16.3797C151.245 16.6326 151.385 16.9573 151.47 17.3538C151.781 18.8195 149.474 20.2042 147.962 20.4759C146.562 20.7276 144.413 20.9366 143.184 17.7184C141.956 14.5002 140.026 9.10562 138.553 4.61002C138.426 4.22206 138.348 3.84102 138.484 3.52659C138.558 3.35664 138.612 3.28328 138.933 3.18661ZM114.312 10.7727C113.288 10.7727 112.52 11.0599 112.009 11.6344C111.497 12.2088 111.241 13.0287 111.241 14.094C111.241 15.3055 111.497 16.1776 112.009 16.7103C112.52 17.2429 113.173 17.5093 113.967 17.5093C114.823 17.5093 115.502 17.3108 116.004 16.9139V11.1487L115.908 11.0986C115.769 11.0317 115.587 10.9649 115.361 10.898C115.079 10.8145 114.729 10.7727 114.312 10.7727ZM101.385 0.0255127C102.263 0.0255127 102.968 0.297065 103.5 0.840168C104.033 1.38327 104.299 2.05171 104.299 2.84547C104.299 3.63924 104.033 4.30768 103.5 4.85078C102.968 5.39388 102.263 5.66544 101.385 5.66544C100.508 5.66544 99.803 5.39388 99.2703 4.85078C98.7377 4.30768 98.4713 3.63924 98.4713 2.84547C98.4713 2.05171 98.7377 1.38327 99.2703 0.840168C99.803 0.297065 100.508 0.0255127 101.385 0.0255127Z" fill="url(#paint0_linear_402_1388)"/>
<defs>
<linearGradient id="paint0_linear_402_1388" x1="141.337" y1="13.6673" x2="2.04228" y2="27.846" gradientUnits="userSpaceOnUse">
<stop stop-color="#299BD8"/>
<stop offset="1" stop-color="#1262AF"/>
</linearGradient>
</defs>
</svg>
