<svg width="36" height="36" viewBox="0 0 36 36" fill="none" xmlns="http://www.w3.org/2000/svg">
<rect width="36" height="36" rx="4" fill="#F1F7FD"/>
<path d="M21.8233 14.814C21.8233 14.645 21.8904 14.4829 22.0099 14.3634C22.1294 14.2439 22.2915 14.1767 22.4605 14.1767H25.0093C25.1783 14.1767 25.3404 14.2439 25.4599 14.3634C25.5794 14.4829 25.6465 14.645 25.6465 14.814V16.0884C25.6465 16.2574 25.5794 16.4194 25.4599 16.5389C25.3404 16.6584 25.1783 16.7256 25.0093 16.7256H22.4605C22.2915 16.7256 22.1294 16.6584 22.0099 16.5389C21.8904 16.4194 21.8233 16.2574 21.8233 16.0884V14.814Z" fill="#1262AE"/>
<path d="M10.3535 10.3535C9.6775 10.3535 9.02919 10.622 8.55119 11.1C8.07319 11.578 7.80466 12.2263 7.80466 12.9023L7.80466 23.0977C7.80466 23.7737 8.07319 24.422 8.55119 24.9C9.02919 25.378 9.6775 25.6465 10.3535 25.6465H25.6465C26.3225 25.6465 26.9708 25.378 27.4488 24.9C27.9268 24.422 28.1953 23.7737 28.1953 23.0977V12.9023C28.1953 12.2263 27.9268 11.578 27.4488 11.1C26.9708 10.622 26.3225 10.3535 25.6465 10.3535H10.3535ZM26.9209 12.9023V19.2744H9.07907V12.9023C9.07907 12.5643 9.21334 12.2402 9.45234 12.0012C9.69134 11.7622 10.0155 11.6279 10.3535 11.6279H25.6465C25.9845 11.6279 26.3087 11.7622 26.5477 12.0012C26.7867 12.2402 26.9209 12.5643 26.9209 12.9023ZM25.6465 24.3721H10.3535C10.0155 24.3721 9.69134 24.2378 9.45234 23.9988C9.21334 23.7598 9.07907 23.4357 9.07907 23.0977V21.8232H26.9209V23.0977C26.9209 23.4357 26.7867 23.7598 26.5477 23.9988C26.3087 24.2378 25.9845 24.3721 25.6465 24.3721Z" fill="#1262AE"/>
</svg>
