<svg width="24" height="24" viewBox="0 0 24 24" fill="none" xmlns="http://www.w3.org/2000/svg">
<path d="M15.9969 2.90642L15.9969 2.90643L3.91294 14.9929C3.91293 14.9929 3.91293 14.9929 3.91292 14.9929C3.51299 15.3928 3.22796 15.8929 3.08769 16.4408L3.08768 16.4408L1.87418 21.1828L2.0195 21.22L1.87418 21.1828C1.84084 21.3131 1.842 21.4499 1.87752 21.5796C1.91305 21.7093 1.98173 21.8276 2.07681 21.9227C2.17189 22.0179 2.29009 22.0866 2.4198 22.1222C2.54951 22.1578 2.68625 22.1591 2.81658 22.1258L2.81665 22.1258L7.56015 20.9133C8.1084 20.7732 8.60887 20.4882 9.00905 20.0881L9.00907 20.0881L21.0931 8.00255C21.4277 7.66794 21.6931 7.27069 21.8742 6.83349C22.0553 6.3963 22.1485 5.92771 22.1485 5.45449C22.1485 4.98127 22.0553 4.51268 21.8742 4.07549C21.6931 3.63829 21.4277 3.24104 21.0931 2.90642C20.7584 2.57181 20.3612 2.30637 19.924 2.12528C19.4868 1.94418 19.0182 1.85098 18.545 1.85098C18.0718 1.85098 17.6032 1.94418 17.166 2.12528C16.7288 2.30637 16.3315 2.57181 15.9969 2.90642ZM7.17633 19.4117L3.70005 20.3005L4.58932 16.8247L4.58932 16.8247C4.66066 16.5457 4.8056 16.2915 5.00856 16.0886L4.9025 15.9825L5.00857 16.0886L15 6.09613L17.9039 8.99999L7.91293 18.9919C7.7095 19.1954 7.45508 19.3404 7.17634 19.4117C7.17634 19.4117 7.17633 19.4117 7.17633 19.4117ZM17.0931 4.00255C17.4782 3.61741 18.0005 3.40101 18.5451 3.40097C19.0897 3.40092 19.6121 3.61724 19.9972 4.00231C20.3823 4.38739 20.5987 4.9097 20.5988 5.45433C20.5988 5.99895 20.3825 6.52129 19.9974 6.90643L19 7.90386L16.0961 4.99997L17.0931 4.00255Z" fill="black" stroke="black" stroke-width="0.3"/>
</svg>
