<svg width="23" height="22" viewBox="0 0 23 22" fill="none" xmlns="http://www.w3.org/2000/svg">
<path d="M11.5 1.63441C9.64766 1.63441 7.83692 2.18369 6.29675 3.21279C4.75659 4.2419 3.55618 5.70461 2.84732 7.41594C2.13846 9.12728 1.95299 11.0104 2.31436 12.8271C2.67573 14.6439 3.56772 16.3127 4.87752 17.6225C6.18732 18.9323 7.85611 19.8243 9.67286 20.1856C11.4896 20.547 13.3727 20.3615 15.0841 19.6527C16.7954 18.9438 18.2581 17.7434 19.2872 16.2032C20.3163 14.6631 20.8656 12.8523 20.8656 11C20.8656 8.51609 19.8789 6.13392 18.1225 4.37753C16.3661 2.62114 13.9839 1.63441 11.5 1.63441Z" stroke="#1262AE" stroke-width="1.5" stroke-miterlimit="10"/>
<path d="M8.52003 8.14189C8.52003 8.14189 8.56473 7.21065 9.56143 6.40872C10.1526 5.93246 10.8614 5.79463 11.5 5.78506C12.0816 5.77761 12.601 5.87392 12.9118 6.02186C13.4439 6.27515 14.48 6.8935 14.48 8.2084C14.48 9.59196 13.5753 10.2204 12.5446 10.9117C11.5138 11.6029 11.2339 12.3532 11.2339 13.1285" stroke="#1262AE" stroke-width="1.5" stroke-miterlimit="10" stroke-linecap="round"/>
<path d="M11.1807 16.9599C11.7685 16.9599 12.245 16.4834 12.245 15.8956C12.245 15.3079 11.7685 14.8314 11.1807 14.8314C10.5929 14.8314 10.1164 15.3079 10.1164 15.8956C10.1164 16.4834 10.5929 16.9599 11.1807 16.9599Z" fill="#1262AE"/>
</svg>
