<svg width="34" height="34" viewBox="0 0 34 34" fill="none" xmlns="http://www.w3.org/2000/svg">
<rect width="34" height="34" rx="4" fill="#F1F7FD"/>
<path d="M17.0001 19.6317H13.4288C10.3142 19.6317 7.78903 21.8411 7.78903 24.5662V26.2111M26.2111 10.4207V17C26.2111 17.698 25.9339 18.3674 25.4403 18.8609C24.9468 19.3545 24.2774 19.6317 23.5794 19.6317H20.9477V26.2111M19.6318 11.7365C19.6318 12.255 19.5297 12.7683 19.3313 13.2472C19.1329 13.7262 18.8422 14.1613 18.4756 14.5279C18.109 14.8945 17.6738 15.1853 17.1949 15.3836C16.716 15.582 16.2026 15.6841 15.6842 15.6841C15.1658 15.6841 14.6525 15.582 14.1735 15.3836C13.6946 15.1853 13.2594 14.8945 12.8929 14.5279C12.5263 14.1613 12.2355 13.7262 12.0371 13.2472C11.8387 12.7683 11.7366 12.255 11.7366 11.7365C11.7366 10.6896 12.1525 9.68549 12.8929 8.94517C13.6332 8.20485 14.6373 7.78895 15.6842 7.78895C16.7312 7.78895 17.7353 8.20485 18.4756 8.94517C19.2159 9.68549 19.6318 10.6896 19.6318 11.7365V11.7365Z" stroke="#1262AE" stroke-width="1.5" stroke-linecap="round" stroke-linejoin="round"/>
</svg>
