<svg width="36" height="36" viewBox="0 0 36 36" fill="none" xmlns="http://www.w3.org/2000/svg">
<rect width="36" height="36" rx="4" fill="#F1F7FD"/>
<g clip-path="url(#clip0_402_1629)">
<path d="M18.0667 13.3333C15.4667 13.3333 13.4 15.4 13.4 18C13.4 20.6 15.4667 22.6667 18.0667 22.6667C20.6667 22.6667 22.7333 20.6 22.7333 18C22.7333 15.4 20.6667 13.3333 18.0667 13.3333ZM18.0667 21.3333C16.2 21.3333 14.7333 19.8667 14.7333 18C14.7333 16.1333 16.2 14.6667 18.0667 14.6667C19.9333 14.6667 21.4 16.1333 21.4 18C21.4 19.8667 19.9333 21.3333 18.0667 21.3333Z" fill="#1262AE"/>
<path d="M27.8667 15.8L26 15.2L25.6 14.2L26.5333 12.4667C26.7333 12.0667 26.6667 11.5333 26.3333 11.2L24.7333 9.6C24.4 9.26667 23.8667 9.2 23.4667 9.4L21.7333 10.3333L20.7333 9.93333L20.1333 8.06667C20 7.66667 19.6 7.33333 19.1333 7.33333H16.8667C16.4 7.33333 16 7.66667 15.9333 8.13333L15.3333 10C14.9333 10.0667 14.6 10.2 14.2667 10.4L12.5333 9.46667C12.1333 9.26667 11.6 9.33333 11.2667 9.66667L9.66666 11.2667C9.33333 11.6 9.26666 12.1333 9.46666 12.5333L10.3333 14.2C10.2 14.5333 10.0667 14.9333 9.93333 15.2667L8.06666 15.8667C7.66666 16 7.33333 16.4 7.33333 16.8667V19.1333C7.33333 19.6 7.66666 20 8.13333 20.1333L9.99999 20.7333L10.4 21.7333L9.46666 23.4667C9.26666 23.8667 9.33333 24.4 9.66666 24.7333L11.2667 26.3333C11.6 26.6667 12.1333 26.7333 12.5333 26.5333L14.2667 25.6L15.2667 26L15.8667 27.9333C16 28.3333 16.4 28.6667 16.8667 28.6667H19.1333C19.6 28.6667 20 28.3333 20.1333 27.9333L20.7333 26L21.7333 25.6L23.4667 26.5333C23.8667 26.7333 24.4 26.6667 24.7333 26.3333L26.3333 24.7333C26.6667 24.4 26.7333 23.8667 26.5333 23.4667L25.6 21.7333L26 20.7333L27.9333 20.1333C28.3333 20 28.6667 19.6 28.6667 19.1333V16.8667C28.6667 16.4 28.3333 15.9333 27.8667 15.8ZM27.3333 18.9333L24.9333 19.6667L24.8667 20L24.2667 21.4L24.0667 21.7333L25.2667 23.9333L23.9333 25.2667L21.7333 24.0667L21.4 24.2667C20.9333 24.5333 20.4667 24.7333 20 24.8667L19.6667 24.9333L18.9333 27.3333H17.0667L16.3333 24.9333L16 24.8667L14.6 24.2667L14.2667 24.0667L12.0667 25.2667L10.7333 23.9333L11.9333 21.7333L11.7333 21.4C11.4667 20.9333 11.2667 20.4667 11.1333 20L11.0667 19.6667L8.66666 18.9333V17.0667L10.9333 16.4L11.0667 16.0667C11.2 15.5333 11.4 15.0667 11.6667 14.6L11.8667 14.2667L10.7333 12.0667L12.0667 10.7333L14.2 11.9333L14.5333 11.7333C15 11.4667 15.4667 11.2667 16 11.1333L16.3333 11L17.0667 8.66667H18.9333L19.6667 11L20 11.1333C20.4667 11.2667 20.9333 11.4667 21.4 11.7333L21.7333 11.9333L23.9333 10.7333L25.2667 12.0667L24.0667 14.2667L24.2667 14.6C24.5333 15.0667 24.7333 15.5333 24.8667 16L24.9333 16.3333L27.3333 17.0667V18.9333Z" fill="#1262AE"/>
</g>
<defs>
<clipPath id="clip0_402_1629">
<rect width="24" height="24" fill="white" transform="translate(6 6)"/>
</clipPath>
</defs>
</svg>
